<svg t="1669309055389" class="icon" viewBox="0 0 1024 1024" version="1.1" xmlns="http://www.w3.org/2000/svg" p-id="3008" width="200" height="200"><path d="M978.488889 159.288889v278.755555c0 22.755556-22.755556 45.511111-45.511111 45.511112s-45.511111-17.066667-45.511111-45.511112V164.977778c0-5.688889-5.688889-11.377778-5.688889-17.066667-5.688889-5.688889-17.066667-11.377778-28.444445-11.377778H176.355556c-11.377778 0-22.755556 5.688889-28.444445 11.377778-5.688889 0-5.688889 5.688889-5.688889 17.066667v699.733333c0 11.377778 17.066667 28.444444 39.822222 28.444445H398.222222c28.444444 0 45.511111 17.066667 45.511111 45.511111 0 22.755556-22.755556 45.511111-45.511111 45.511111H176.355556c-68.266667 0-130.844444-51.2-130.844445-113.777778V164.977778c0-28.444444 11.377778-56.888889 34.133333-79.644445 22.755556-22.755556 62.577778-39.822222 96.711112-34.133333h665.6c34.133333 0 68.266667 11.377778 96.711111 34.133333 22.755556 17.066667 34.133333 45.511111 39.822222 73.955556z" fill="#000000" p-id="3009"></path><path d="M921.6 853.333333c17.066667 17.066667 17.066667 51.2 0 68.266667s-45.511111 17.066667-68.266667 0l-113.777777-113.777778-113.777778 113.777778c-11.377778 11.377778-22.755556 11.377778-34.133334 11.377778-11.377778 0-22.755556-5.688889-34.133333-11.377778-11.377778-11.377778-11.377778-22.755556-11.377778-34.133333 0-11.377778 5.688889-22.755556 11.377778-34.133334l113.777778-113.777777-113.777778-113.777778c-17.066667-17.066667-17.066667-51.2 0-68.266667 17.066667-17.066667 45.511111-17.066667 68.266667 0l113.777778 113.777778 113.777777-113.777778c17.066667-17.066667 51.2-17.066667 68.266667 0 17.066667 17.066667 17.066667 51.2 0 68.266667l-113.777778 113.777778 113.777778 113.777777z" fill="#000000" p-id="3010"></path></svg>